<?xml version="1.0" standalone="no"?>
<!DOCTYPE svg PUBLIC "-//W3C//DTD SVG 20010904//EN"
 "http://www.w3.org/TR/2001/REC-SVG-20010904/DTD/svg10.dtd">
<svg version="1.0" xmlns="http://www.w3.org/2000/svg"
 width="1280.000000pt" height="1280.000000pt" viewBox="0 0 1280.000000 1280.000000"
 preserveAspectRatio="xMidYMid meet">
<metadata>
Created by potrace 1.11, written by Peter Selinger 2001-2013
</metadata>
<g transform="translate(0.000000,1280.000000) scale(0.100000,-0.100000)"
fill="#000000" stroke="none">
<path d="M6132 12392 l-423 -2 5 -33 c3 -17 8 -102 11 -187 3 -85 12 -292 20
-460 8 -168 19 -420 25 -560 6 -140 17 -385 25 -545 8 -159 15 -317 15 -351
l0 -61 -87 -12 c-466 -65 -826 -176 -1068 -330 -93 -59 -214 -182 -248 -251
-119 -246 -47 -488 228 -763 242 -242 623 -455 1123 -627 l122 -42 0 -37 c0
-20 7 -198 15 -396 32 -778 36 -898 28 -905 -4 -3 -37 -19 -73 -35 -108 -46
-281 -133 -357 -178 -155 -91 -184 -109 -196 -121 -6 -7 -19 -17 -29 -22 -21
-12 -121 -98 -172 -149 -138 -137 -205 -272 -214 -425 -9 -173 66 -328 243
-505 33 -34 78 -74 100 -90 22 -17 49 -38 60 -48 28 -26 238 -157 315 -198 36
-19 67 -37 68 -41 2 -5 7 -8 12 -8 4 0 63 -26 131 -58 68 -32 138 -64 155 -71
l31 -12 7 -177 c4 -97 11 -262 17 -367 37 -690 37 -700 25 -711 -6 -6 -33 -19
-61 -29 -110 -38 -247 -125 -332 -210 -110 -109 -145 -181 -151 -308 -4 -76
-1 -97 22 -163 35 -98 78 -164 163 -246 83 -81 176 -144 309 -209 l101 -50 8
-237 c5 -130 9 -263 9 -296 l1 -59 -71 -31 c-148 -65 -261 -151 -290 -222 -20
-49 -17 -121 7 -171 43 -88 200 -210 325 -251 l44 -14 -3 -347 c-2 -302 0
-346 13 -346 28 0 59 85 74 207 21 156 51 968 37 968 -3 0 -31 -7 -63 -16
l-58 -17 0 -203 c0 -112 -3 -204 -7 -204 -14 0 -100 61 -130 92 -17 18 -44 57
-58 87 -23 44 -27 63 -23 111 4 51 8 61 38 87 58 49 69 54 251 124 198 75 277
118 346 188 103 103 140 265 93 405 -22 68 -70 142 -118 184 -60 53 -145 112
-153 106 -5 -3 -9 -64 -9 -136 l0 -131 34 -38 c31 -33 56 -90 56 -126 0 -30
-43 -121 -73 -153 -39 -43 -106 -95 -113 -88 -3 3 0 194 5 424 6 231 13 546
16 702 8 329 23 300 -131 251 l-96 -31 6 -81 c3 -45 8 -163 12 -261 7 -204 15
-192 -85 -133 -71 42 -126 99 -159 167 -36 74 -38 193 -5 256 52 98 178 175
448 274 230 85 265 100 370 152 230 114 375 247 463 423 38 77 68 174 77 251
22 196 -139 424 -455 645 -78 55 -254 159 -268 159 -7 0 -11 -62 -12 -167 0
-93 -2 -176 -3 -187 -1 -10 7 -23 18 -30 209 -120 314 -245 330 -392 23 -204
-144 -433 -416 -569 l-69 -35 0 92 c0 51 4 233 10 403 30 970 60 2088 55 2093
-3 3 -265 -104 -369 -151 l-48 -21 6 -96 c3 -52 11 -201 16 -330 6 -129 12
-265 14 -302 l3 -67 -46 24 c-162 82 -287 167 -359 244 -120 128 -131 273 -34
419 106 159 292 269 797 475 88 36 198 82 245 102 47 20 112 48 144 62 135 56
362 183 472 263 97 71 236 217 284 300 87 150 120 301 102 475 -14 129 -32
187 -83 264 -129 191 -376 337 -823 485 -76 25 -140 46 -142 46 -8 0 -13 -81
-18 -260 l-6 -195 96 -45 c158 -74 278 -172 327 -265 30 -59 29 -153 -5 -226
-52 -114 -230 -264 -418 -352 -119 -56 -130 -60 -130 -39 0 63 51 1596 70
2101 5 146 8 266 6 268 -1 2 -74 7 -162 11 -162 9 -452 -1 -465 -15 -4 -5 0
-174 7 -378 8 -203 13 -382 12 -397 l-3 -28 -85 40 c-246 114 -448 241 -562
354 -90 89 -121 147 -126 238 -4 58 -1 73 21 111 84 143 318 250 667 303 162
25 578 25 740 0 281 -43 509 -121 674 -231 71 -47 167 -145 206 -209 19 -30
43 -57 54 -61 12 -3 93 -9 181 -12 356 -13 700 71 769 188 37 62 1 121 -126
212 -458 326 -1070 549 -1640 598 l-146 13 3 61 c3 33 7 143 10 245 6 219 30
923 50 1485 7 220 11 402 7 405 -4 3 -197 4 -430 2z m1678 -2678 c65 -34 110
-73 110 -96 0 -18 -74 -40 -118 -35 -77 8 -141 69 -167 156 -7 24 -7 24 48 18
37 -3 81 -18 127 -43z"/>
</g>
</svg>
