<?xml version="1.0" encoding="utf-8"?>
<!-- Generator: Adobe Illustrator 22.1.0, SVG Export Plug-In . SVG Version: 6.00 Build 0)  -->
<svg version="1.1" id="Слой_1" xmlns="http://www.w3.org/2000/svg" xmlns:xlink="http://www.w3.org/1999/xlink" x="0px" y="0px"
	 viewBox="0 0 750 1334" style="enable-background:new 0 0 750 1334;" xml:space="preserve">
<style type="text/css">
	.st0{fill:#FFFFFF;}
	.st1{fill:#C3C2C2;}
</style>
<g>
	<g>
		<path class="st0" d="M376,924c-84,0-168,0-251.9,0.1c-3.3,0-4.2-0.5-4.2-4c0.1-168,0.1-335.9,0-503.9c0-3.8,1-4.3,4.4-4.3
			c167.8,0.1,335.6,0.1,503.4,0c3.5,0,4.4,0.5,4.4,4.3c-0.1,167.8-0.1,335.6,0,503.4c0,3.9-1.1,4.5-4.7,4.5
			C543.6,924,459.8,924,376,924z"/>
		<path class="st1" d="M365,860c5.5-1.7,6.3,0.9,6.1,5.8c-0.4,11.9-1,23.8-2.1,35.7c-0.1,0.8-0.1,1.7-0.5,2.4
			c-0.9,1.4-0.9,4.2-3.2,3.8c-2.2-0.4-1.2-2.8-1.2-4.3c-0.1-6.5-0.2-13,0-19.5c0.1-3-1-4.6-3.6-5.8c-3.8-1.7-7.4-3.7-9.7-7.5
			c-3.1-5.1-2.6-9.2,2-13c1.7-1.4,3.3-2.8,5.2-3.9c6.1-3.6,7.3-6,5.9-12.9c-0.1-0.6-0.7-1.3-0.6-1.9c2.1-9.1-3.5-12.7-10.6-16.1
			c-5.1-2.4-8.8-6.9-11.3-12.2c-3.9-8.4-2.3-17.3,4.9-23.3c3.5-3,7.3-5.9,11.8-7.2c3-0.9,3-2.3,3.1-4.9c0.2-11.6-1.8-23.2-1.1-34.9
			c0.4-7.7-2.9-12.4-10.5-15.5c-11-4.5-21.2-10.7-28.8-20.5c-10.5-13.4-7.3-23.2,2.5-34c8.1-8.9,19-13.8,29.7-18.7
			c2.6-1.2,3.3-2.5,3.2-5.2c-0.4-14.3-0.7-28.6-1.1-42.8c-0.1-4.1-1.9-6.4-6.5-8c-16.5-5.6-32.3-12.8-44.8-25.6
			c-5.5-5.7-9.9-12.2-10.5-20.3c-0.5-6.8,2.6-12.8,7.7-17.1c10.3-8.6,22.9-12.3,35.8-14.7c4.4-0.8,8.6-2.2,13.2-2.2
			c2.2,0,2.3-1.8,2-3.2c-2-8.2,0.2-16.6-1.8-24.7c-0.1-0.5-0.1-1-0.1-1.5c0.5-17.8-1.6-35.5-2.1-53.2c-0.1-4.1,1-5.5,5.2-5.4
			c9.3,0.3,18.7,0.1,28-0.1c2,0,3.1,0,2.4,2.2c-0.9,3-0.5,6-0.5,8.9c0,15.6-1,31.2-1.3,46.8c-0.2,9.1-0.2,18.3-0.8,27.4
			c-0.2,2.7,0.6,2.8,2.8,2.9c25.9,1.3,48.9,10.6,69.9,25.3c5.1,3.6,4.7,8.9-1,11.7c-3.7,1.9-7.8,3-11.9,3.4c-7,0.8-14,2.7-21.2,0.5
			c-1.3-0.4-2.6-0.3-3.4-1.6c-6.4-10.5-16.9-14.6-28-17.1c-17.4-3.9-34.8-3.9-51.8,2.4c-0.2,0.1-0.3,0.1-0.5,0.1
			c-5.5,1.7-10.4,4.7-11.7,10.5c-1.2,5.5,3.2,9.3,7.1,12.3c6.6,5.2,13.9,9.5,22.3,12.9c0.5-5.8,0.7-11.4-0.1-16.9
			c-0.3-2.3-0.6-4.6-0.6-6.9c0-8.5,0-8.7,8.4-8.7c4.9,0,9.9-0.3,14.9,0.6c3.6,0.7,3.6,2.2,3.7,4.9c0.3,7.8-1,15.6-1.2,23.3
			c-0.5,14.6-0.4,29.3-1.1,43.8c-0.3,7.4-0.6,14.9-0.7,22.9c7.6-3.3,14.5-6.7,19.1-13.4c3.6-5.3,2.4-11.6-2.9-15.2
			c-3.3-2.2-6.7-4.3-10.2-6.1c-2.3-1.1-3.5-2.6-2.8-5c1.2-4.1,0.9-8.2,0.9-12.4c0-2.8,1.1-3.5,3.7-2.6c11.6,3.7,23.1,7.7,32.4,15.8
			c7.6,6.6,9.2,15.5,7.5,25c-2.7,14.8-13.4,22.6-25.5,29.2c-13.9,7.5-29.2,11.9-43.1,19.2c-5,2.6-9.8,5.3-13,10.4
			c-4.2,6.6-2.3,12.6,2.4,16.9c3.7,3.5,8.1,6.2,13.4,8c1.5-6.8-1-13.3-0.7-19.8c0.5-13.5-2-9.9,10.4-14.9c7.7-3.1,8.1-3,7.6,5.2
			c-0.8,13.3-0.1,26.6-1.1,39.8c-1,12.3-0.3,24.6-0.8,36.9c-0.2,5.8-1.8,11.5-0.7,17.3c11.4-2.5,20.1-15.4,16.9-25
			c-1.7-4.9-5.1-8.1-9.6-10.2c-2.9-1.3-3.9-3.3-3.6-6.3c0.2-1.7-0.1-3.3,0.1-5c0.2-2.3-1.2-5.3,0.9-6.6c2.3-1.4,4.7,1.1,6.6,2.3
			c7.9,5.2,15.6,10.6,20.7,18.9c3,4.9,3.4,9.8,2,15.2c-3.7,14.4-14.6,21.4-27.4,26.4c-7.5,3-15.4,5.1-22.3,9.6
			c-3.8,2.5-5,5.6-4.5,9.7c0.4,4.2,2.4,7.5,6,9.8c2.1,1.3,3,0.6,2.9-1.8c-0.1-4.5-0.1-9,0-13.5c0-3,6-6.7,8.7-5.5
			c1.9,0.8,1.3,2.6,1.2,3.9c-0.5,15.6,1.2,31.3-0.9,46.8c-0.2,1.3,0,2.6,0,4.1c5.9-2.6,7.7-6.9,4.6-11.6c-2.7-4.1-1.3-8.4-1.4-12.6
			c-0.1-2.5,1.5-1.3,2.6-0.6c6.7,4.3,11.1,10,10.2,18.5c-0.8,7.8-5.7,12.3-12.5,15.3C371.3,857.4,368.2,858.7,365,860
			c-1,0.6-1.8,1.5-2.7,2.2c-5,3.8-5.1,5.8-0.2,10.7C364.2,868.7,360.6,863.4,365,860z"/>
		<path class="st0" d="M365,860c-2.2,4.9-0.2,10.1-1.3,15.3c-4.5-1.5-6.8-4.8-6.6-9.2C357.4,861.6,361.7,861.2,365,860
			C365,860,365,860,365,860z"/>
		<path class="st0" d="M435.9,539c-5.4,2.3-7.6-0.5-9.6-4.6C430.2,534.6,432.9,536.3,435.9,539z"/>
	</g>
</g>
</svg>
