<?xml version="1.0" encoding="utf-8"?>
<!-- Generator: Adobe Illustrator 22.1.0, SVG Export Plug-In . SVG Version: 6.00 Build 0)  -->
<svg version="1.1" xmlns="http://www.w3.org/2000/svg" xmlns:xlink="http://www.w3.org/1999/xlink" x="0px" y="0px"
	 viewBox="0 0 50 25" style="enable-background:new 0 0 50 25;" xml:space="preserve">
<style type="text/css">
	.st0{fill:#041EFE;}
	.st1{fill:#FEFE09;}
</style>
<g id="Фон_xA0_Изображение_1_">
	<g>
		<g>
			<path class="st0" d="M-0.7,12.5c0-3.8,0.1-7.5,0-11.3c0-1.1,0.2-1.3,1.3-1.3c16.1,0,32.3,0,48.4,0c1.1,0,1.3,0.2,1.3,1.3
				c-0.1,3.8,0,7.5,0,11.3c-1,1-2.3,0.9-3.6,0.9c-14.6,0-29.2,0-43.8,0C1.7,13.4,0.4,13.4-0.7,12.5z"/>
			<path class="st1" d="M-0.7,12.5c17,0,34,0,51,0c0,3.7,0,7.5,0,11.2c0,1-0.1,1.3-1.3,1.3C32.9,25,16.7,25,0.6,25
				c-1.2,0-1.3-0.3-1.3-1.3C-0.6,20-0.7,16.2-0.7,12.5z"/>
		</g>
	</g>
</g>
<g id="Слой_1_xA0_Изображение_1_">
</g>
</svg>
