<?xml version="1.0" encoding="utf-8"?>
<!-- Generator: Adobe Illustrator 22.1.0, SVG Export Plug-In . SVG Version: 6.00 Build 0)  -->
<svg version="1.1" id="Слой_1" xmlns="http://www.w3.org/2000/svg" xmlns:xlink="http://www.w3.org/1999/xlink" x="0px" y="0px"
	 viewBox="0 0 750 1334" style="enable-background:new 0 0 750 1334;" xml:space="preserve">
<style type="text/css">
	.st0{fill:#FED401;}
	.st1{fill:#015BBA;}
	.st2{fill:#FDD400;}
	.st3{fill:#025BB9;}
	.st4{fill:#015BB9;}
	.st5{fill:#035CB8;}
</style>
<g>
	<path class="st0" d="M380.7,1167.8c-0.4,0-0.7,0-1.1,0c-0.9-0.5-1.8-1.1-2.8-1.5c-81.1-36.4-162.3-72.6-243.3-109.3
		c-38.1-17.2-61.3-47.2-69.7-88.9c-0.8-4.1-1.3-8.3-2-12.4c0-230.2,0-460.4,0-690.6c0-2,0.4-2.5,2.4-2.5
		c210.6,0.1,421.2,0.1,631.9,0c2,0,2.4,0.5,2.4,2.5c-0.1,230.2,0,460.4,0,690.6c-1,2.5-0.8,5.3-1.2,7.9
		c-7.4,43.4-30.4,75.1-69.8,93.1c-74.6,34-149.6,67.2-224.4,100.8C395.6,1160.9,387.9,1163.9,380.7,1167.8z M71.4,613.2
		c0,108.7,0,217.3,0,326c0,6.2,0.2,12.5,1.2,18.6c7,42.8,29.5,74,68.4,91.8c78.9,36.1,158.1,71.7,237.2,107.5c1.4,0.6,2.5,0.7,3.9,0
		C455,1124,527.9,1091,600.9,1058c10.7-4.9,21.8-8.9,31.8-15.4c37-23.9,56.1-58.5,56.1-103.1c0.2-221.3,0.1-442.5,0.2-663.8
		c0-2.7-0.6-3.4-3.3-3.4c-203.6,0.1-407.3,0.1-610.9,0c-2.9,0-3.4,0.9-3.4,3.6C71.4,388.3,71.4,500.8,71.4,613.2z"/>
	<path class="st1" d="M71.4,613.2c0-112.4,0-224.9-0.1-337.3c0-2.7,0.5-3.6,3.4-3.6c203.6,0.1,407.3,0.1,610.9,0
		c2.7,0,3.3,0.7,3.3,3.4c-0.1,221.3,0.1,442.5-0.2,663.8c0,44.6-19.1,79.1-56.1,103.1c-9.9,6.4-21.1,10.5-31.8,15.4
		c-72.9,33.1-145.9,66-218.8,99.1c-1.4,0.7-2.5,0.6-3.9,0c-79.1-35.8-158.3-71.3-237.2-107.5c-38.8-17.8-61.4-49-68.4-91.8
		c-1-6.1-1.2-12.4-1.2-18.6C71.4,830.5,71.4,721.9,71.4,613.2z M148.7,380.6c0,1.5,0,2.5,0,3.4c0,187.8,0,375.6-0.1,563.5
		c0,2.5,0.5,3.3,3.1,3.3c41-0.1,82.1-0.1,123.1-0.1c2.1,0,3,0.5,3.4,2.7c10.3,51.6,35.7,93.9,75.8,127c8.6,7.1,17.2,14.1,23.3,23.8
		c0.9,1.4,1.8,2.8,2.8,4.4c0.5-0.7,0.8-1.1,1-1.6c4.7-8,10.6-15.1,17.9-20.8c6.2-4.9,12.4-9.8,18.2-15.3
		c33.9-32.1,55.6-71.1,64.8-117.3c0.4-2,1-2.9,3.3-2.9c40.9,0.1,81.9,0.1,122.8,0.1c4,0,3.5,0.6,3.5-3.6c0-121.8,0-243.6,0-365.5
		c0-65.8,0-131.6,0-197.5c0-1,0.6-2.5-0.4-3c-0.9-0.5-1.9,0.7-2.8,1.2c-14,8.1-27.2,17.5-39.3,28.4c-39.5,35.5-65.3,79.4-77.1,131.8
		c-2.8,12.2-4.1,24.7-5.5,37.1c-2.1,19-4.4,37.9-6.7,56.9c-2,17.4-4.1,34.7-6.1,52.1c-1.8,14.9-3.5,29.9-5.3,44.8
		c-0.2,1.3,0.2,1.6,1.3,1.5c2.5-0.3,5.1-0.7,7.7-0.7c18.8,0.3,34.8,14.8,37.3,33.8c2.6,19.4-9.1,38.1-27.5,43.2
		c-8.2,2.3-16.6,3.6-24.8,5.4c-1.1,0.2-1.7-0.1-2.3-1.2c-7.7-14.9-16-29.5-22.4-45c-10.1-24.6-18.7-49.9-25.5-75.7
		c-7.8-29.6-12.9-59.6-12.9-90.4c0-33.1,2.1-66.1,4.2-99.1c2.3-34.3,4.8-68.5,5.4-102.9c0.5-29.7-8.7-55.9-27.2-78.8
		c-1.2-1.5-1.9-1.8-3.3-0.1c-18.1,22.3-27.5,47.9-27.3,76.8c0.3,34.1,2.9,68.1,5.2,102.1c1.8,27.1,3.3,54.2,4.2,81.3
		c1,28.9-0.7,57.5-6.7,85.7c-10.9,51.2-28.2,100-53.6,145.7c-0.7,1.3-1.4,1.7-2.9,1.4c-6.9-1.5-13.8-2.9-20.8-4.3
		c-16.3-3.3-28.5-16.1-31.2-32.7c-2.5-15.8,5.1-32,19.2-40.2c7.4-4.3,15.4-6,24-4.6c3.1,0.5,3.2,0.4,2.8-2.7
		c-1.6-13.8-3.2-27.6-4.8-41.3c-2-17.4-4.1-34.7-6.1-52.1c-2-17.3-4-34.5-6.1-51.8c-1.5-12.6-2.4-25.3-4.9-37.8
		c-12.1-60.3-42-109.4-89.5-147.5C170.4,393.9,160.1,387,148.7,380.6z"/>
	<path class="st2" d="M148.7,380.6c11.4,6.4,21.8,13.2,31.5,21c47.4,38,77.3,87.2,89.5,147.5c2.5,12.5,3.4,25.2,4.9,37.8
		c2.1,17.3,4.1,34.5,6.1,51.8c2,17.4,4.1,34.7,6.1,52.1c1.6,13.8,3.2,27.6,4.8,41.3c0.4,3.2,0.3,3.3-2.8,2.7
		c-8.5-1.4-16.6,0.2-24,4.6c-14.1,8.2-21.8,24.4-19.2,40.2c2.7,16.6,14.8,29.4,31.2,32.7c6.9,1.4,13.9,2.8,20.8,4.3
		c1.5,0.3,2.2-0.1,2.9-1.4c25.5-45.7,42.7-94.5,53.6-145.7c6-28.2,7.7-56.9,6.7-85.7c-0.9-27.1-2.5-54.2-4.2-81.3
		c-2.2-34-4.9-68-5.2-102.1c-0.3-29,9.2-54.5,27.3-76.8c1.4-1.7,2-1.4,3.3,0.1c18.5,22.9,27.7,49.1,27.2,78.8
		c-0.6,34.4-3.1,68.6-5.4,102.9c-2.2,33-4.3,66-4.2,99.1c0,30.7,5,60.8,12.9,90.4c6.8,25.8,15.4,51.1,25.5,75.7
		c6.4,15.5,14.7,30.1,22.4,45c0.5,1.1,1.1,1.4,2.3,1.2c8.3-1.8,16.7-3.1,24.8-5.4c18.4-5.1,30.1-23.8,27.5-43.2
		c-2.6-18.9-18.6-33.5-37.3-33.8c-2.5,0-5.1,0.4-7.7,0.7c-1.1,0.1-1.5-0.2-1.3-1.5c1.8-14.9,3.5-29.9,5.3-44.8
		c2-17.4,4.1-34.7,6.1-52.1c2.2-19,4.5-37.9,6.7-56.9c1.4-12.4,2.7-24.9,5.5-37.1c11.8-52.4,37.6-96.3,77.1-131.8
		c12.1-10.9,25.3-20.3,39.3-28.4c0.9-0.5,1.9-1.7,2.8-1.2c1,0.5,0.4,2,0.4,3c0,65.8,0,131.6,0,197.5c0,121.8,0,243.6,0,365.5
		c0,4.2,0.5,3.6-3.5,3.6c-40.9,0-81.9,0-122.8-0.1c-2.3,0-2.9,0.8-3.3,2.9c-9.2,46.2-30.9,85.3-64.8,117.3
		c-5.8,5.5-12,10.4-18.2,15.3c-7.2,5.8-13.2,12.8-17.9,20.8c-0.3,0.4-0.6,0.9-1,1.6c-1-1.6-1.9-3-2.8-4.4
		c-6.1-9.6-14.7-16.6-23.3-23.8c-40.1-33-65.5-75.4-75.8-127c-0.5-2.3-1.3-2.7-3.4-2.7c-41,0.1-82.1,0-123.1,0.1
		c-2.7,0-3.1-0.8-3.1-3.3c0.1-187.8,0.1-375.6,0.1-563.5C148.7,383.1,148.7,382.1,148.7,380.6z M573.1,463c-0.6,0.5-0.8,0.6-1,0.8
		c-15.5,18.9-27.3,40-35.6,63.1c-7.5,20.8-10.3,42.6-12.7,64.4c-1.9,17.3-4,34.5-6,51.8c-2.3,19.4-4.5,38.8-6.8,58.2
		c-0.2,1.4,0.2,2,1.4,2.7c19.2,10.6,32,26.6,38.2,47.9c0.5,1.7,1.3,2,2.8,2c5.5-0.1,11-0.2,16.4,0c2.6,0.1,3.4-0.5,3.4-3.3
		c-0.1-94.8-0.1-189.7-0.1-284.5C573.1,465.3,573.1,464.4,573.1,463z M187.2,462.7c0,1.7,0,2.6,0,3.4c0,94.8,0,189.7,0,284.5
		c0,0.5,0,0.9,0,1.4c-0.2,1.5,0.4,2,1.9,2c5.9-0.1,11.8-0.1,17.8,0c1.8,0,2.4-0.6,2.9-2.2c6.2-21.2,18.9-36.9,37.8-47.5
		c1.3-0.7,1.9-1.4,1.7-3.1c-1.9-15.9-3.7-31.8-5.6-47.8c-3.1-26.4-6.4-52.7-9.3-79.1c-3.2-29-11.9-56.2-26.2-81.4
		C202.2,482.3,195.4,472.5,187.2,462.7z M573.1,852.4c0-18.7,0-37.3,0-56c0-2.4-0.4-3.3-3-3.2c-5.4,0.2-10.8,0.2-16.2,0
		c-2.1-0.1-2.9,0.5-3.6,2.7c-7.6,24.7-23.3,41.7-46.8,51.3c-7.3,2.9-15,4-22.5,5.9c-2,0.5-2.4,1.1-1.8,3.2c4.5,17.1,6.8,34.6,7,52.3
		c0,2.2,0.5,2.8,2.7,2.8c27.1-0.1,54.3-0.1,81.4,0c2.5,0,2.8-0.8,2.8-3C573.1,889.7,573.1,871,573.1,852.4z M187.2,852.1
		c0,18.9,0,37.9,0,56.8c0,1.5-0.1,2.5,2,2.5c27.7-0.1,55.3-0.1,83,0c1.5,0,1.9-0.5,1.9-2c0.2-18.2,2.5-36.1,7.2-53.7
		c0.4-1.6,0.1-2.2-1.5-2.5c-5.6-1.2-11.3-2.3-16.7-4c-26.8-8.3-44.6-26.1-53.1-53.3c-0.7-2.2-1.5-2.7-3.6-2.7
		c-5.4,0.2-10.8,0.2-16.2,0c-2.6-0.1-3,0.8-3,3.2C187.2,814.9,187.2,833.5,187.2,852.1z M380.3,729.2c-0.4,0.8-0.6,1-0.6,1.2
		c-10.1,33.1-23.7,64.7-40.9,94.6c-1.2,2.1,0.2,2.1,1.4,2.5c15.2,5.2,28,14,38.4,26.4c1.3,1.5,1.8,1.7,3.2,0
		c10.3-12.3,22.9-21,37.9-26.2c2.9-1,2.9-1,1.3-3.8c-10.9-19-20.3-38.7-28.3-59.1C388,753.3,384,741.6,380.3,729.2z M360.7,1033.3
		c0.1-0.9,0.2-1.1,0.2-1.4c0-26.3,0-52.6,0.1-79c0-2.1-0.9-2.2-2.5-2.2c-12.8,0-25.6,0.1-38.5,0c-2.7,0-2.9,0.7-2.3,3.1
		c5.6,22.5,15.1,43.2,28.5,61.9C350.5,1021.8,355.2,1027.6,360.7,1033.3z M443.3,950.7c-14,0-27.6,0.1-41.2-0.1
		c-2.2,0-2.7,0.7-2.7,2.9c0.1,25.7,0,51.4,0.1,77.1c0,0.7-0.4,1.6,0.5,2.4C421.5,1009.6,435.9,982.3,443.3,950.7z M423.4,911.3
		c7.1,0,14.1-0.1,21.2,0.1c2.3,0,3.1-0.4,3-3c-0.3-14.3-2.2-28.3-5.9-42.1c-1-3.7-1-3.7-4.7-2.8c-21.5,5.2-36.2,23-37.7,45.5
		c-0.1,1.9,0.3,2.5,2.2,2.4C408.9,911.3,416.1,911.3,423.4,911.3z M336.7,911.3c6.4,0,12.7,0,19.1,0c5.2,0,5.2,0,4.8-5.2
		c-1.6-20.9-18.9-39.9-39.3-43.1c-1.4-0.2-2-0.1-2.4,1.4c-3.9,14.7-6.1,29.6-6.3,44.8c0,1.7,0.4,2.1,2,2.1
		C322,911.3,329.4,911.3,336.7,911.3z"/>
	<path class="st3" d="M573.1,463c0,1.4,0,2.3,0,3.2c0,94.8,0,189.7,0.1,284.5c0,2.8-0.8,3.4-3.4,3.3c-5.5-0.2-11-0.1-16.4,0
		c-1.5,0-2.3-0.3-2.8-2c-6.2-21.4-19-37.3-38.2-47.9c-1.2-0.6-1.6-1.3-1.4-2.7c2.3-19.4,4.6-38.8,6.8-58.2c2-17.3,4.1-34.5,6-51.8
		c2.4-21.9,5.2-43.6,12.7-64.4c8.3-23.1,20.1-44.2,35.6-63.1C572.3,463.6,572.5,463.5,573.1,463z"/>
	<path class="st3" d="M187.2,462.7c8.2,9.8,15,19.7,21,30.1c14.3,25.3,23,52.4,26.2,81.4c3,26.4,6.2,52.8,9.3,79.1
		c1.9,15.9,3.6,31.8,5.6,47.8c0.2,1.7-0.3,2.3-1.7,3.1c-18.9,10.6-31.7,26.4-37.8,47.5c-0.5,1.6-1.1,2.3-2.9,2.2
		c-5.9-0.1-11.8-0.1-17.8,0c-1.5,0-2.1-0.4-1.9-2c0.1-0.4,0-0.9,0-1.4c0-94.8,0-189.7,0-284.5C187.2,465.2,187.2,464.4,187.2,462.7z
		"/>
	<path class="st4" d="M573.1,852.4c0,18.7,0,37.3,0,56c0,2.2-0.3,3.1-2.8,3c-27.1-0.1-54.3-0.1-81.4,0c-2.2,0-2.7-0.6-2.7-2.8
		c-0.1-17.7-2.5-35.2-7-52.3c-0.5-2.1-0.2-2.7,1.8-3.2c7.5-1.9,15.3-2.9,22.5-5.9c23.6-9.5,39.2-26.6,46.8-51.3
		c0.7-2.2,1.5-2.7,3.6-2.7c5.4,0.2,10.8,0.2,16.2,0c2.6-0.1,3,0.8,3,3.2C573.1,815,573.1,833.7,573.1,852.4z"/>
	<path class="st4" d="M187.2,852.1c0-18.6,0-37.1,0-55.7c0-2.3,0.4-3.3,3-3.2c5.4,0.2,10.8,0.2,16.2,0c2.1-0.1,2.9,0.5,3.6,2.7
		c8.6,27.2,26.3,45,53.1,53.3c5.5,1.7,11.1,2.8,16.7,4c1.6,0.4,1.9,0.9,1.5,2.5c-4.7,17.6-7,35.5-7.2,53.7c0,1.5-0.4,2-1.9,2
		c-27.7,0-55.3-0.1-83,0c-2.1,0-2-1-2-2.5C187.2,890,187.2,871,187.2,852.1z"/>
	<path class="st4" d="M380.3,729.2c3.8,12.4,7.8,24.1,12.3,35.6c8,20.4,17.4,40.1,28.3,59.1c1.6,2.8,1.6,2.8-1.3,3.8
		c-15,5.3-27.6,14-37.9,26.2c-1.4,1.7-1.9,1.5-3.2,0c-10.4-12.4-23.2-21.2-38.4-26.4c-1.2-0.4-2.6-0.3-1.4-2.5
		c17.2-29.9,30.8-61.5,40.9-94.6C379.7,730.2,379.9,730,380.3,729.2z"/>
	<path class="st5" d="M360.7,1033.3c-5.5-5.7-10.2-11.5-14.6-17.6c-13.4-18.8-22.9-39.4-28.5-61.9c-0.6-2.4-0.3-3.1,2.3-3.1
		c12.8,0.1,25.6,0.1,38.5,0c1.6,0,2.5,0.1,2.5,2.2c-0.1,26.3,0,52.6-0.1,79C360.9,1032.2,360.8,1032.4,360.7,1033.3z"/>
	<path class="st5" d="M443.3,950.7c-7.4,31.6-21.8,58.9-43.4,82.3c-0.9-0.8-0.5-1.6-0.5-2.4c0-25.7,0-51.4-0.1-77.1
		c0-2.2,0.5-2.9,2.7-2.9C415.7,950.8,429.3,950.7,443.3,950.7z"/>
	<path class="st4" d="M423.4,911.3c-7.2,0-14.5-0.1-21.7,0c-1.9,0-2.4-0.5-2.2-2.4c1.5-22.5,16.2-40.3,37.7-45.5
		c3.7-0.9,3.7-0.9,4.7,2.8c3.6,13.8,5.6,27.8,5.9,42.1c0.1,2.6-0.8,3.1-3,3C437.5,911.2,430.5,911.3,423.4,911.3z"/>
	<path class="st4" d="M336.7,911.3c-7.3,0-14.7-0.1-22,0c-1.6,0-2.1-0.4-2-2.1c0.1-15.2,2.3-30.1,6.3-44.8c0.4-1.5,1-1.7,2.4-1.4
		c20.4,3.2,37.7,22.2,39.3,43.1c0.4,5.2,0.4,5.2-4.8,5.2C349.4,911.3,343,911.3,336.7,911.3z"/>
</g>
</svg>
